<mxfile host="app.diagrams.net" agent="Mozilla/5.0 (Windows NT 10.0; Win64; x64) AppleWebKit/537.36 (KHTML, like Gecko) Chrome/131.0.0.0 Safari/537.36" version="25.0.3">
  <diagram name="Page-1" id="i1-LkGSDAQM7lanhen2U">
    <mxGraphModel dx="1050" dy="522" grid="1" gridSize="10" guides="1" tooltips="1" connect="1" arrows="1" fold="1" page="1" pageScale="1" pageWidth="827" pageHeight="1169" math="0" shadow="0">
      <root>
        <mxCell id="0" />
        <mxCell id="1" parent="0" />
        <mxCell id="cN3Mjci1khx7wKdcABQk-1" value="" style="edgeStyle=orthogonalEdgeStyle;rounded=0;orthogonalLoop=1;jettySize=auto;html=1;" edge="1" parent="1" source="cN3Mjci1khx7wKdcABQk-2" target="cN3Mjci1khx7wKdcABQk-4">
          <mxGeometry relative="1" as="geometry" />
        </mxCell>
        <mxCell id="cN3Mjci1khx7wKdcABQk-2" value="start" style="ellipse;whiteSpace=wrap;html=1;aspect=fixed;" vertex="1" parent="1">
          <mxGeometry x="360" y="50" width="120" height="60" as="geometry" />
        </mxCell>
        <mxCell id="cN3Mjci1khx7wKdcABQk-3" value="" style="edgeStyle=orthogonalEdgeStyle;rounded=0;orthogonalLoop=1;jettySize=auto;html=1;" edge="1" parent="1" source="cN3Mjci1khx7wKdcABQk-4" target="cN3Mjci1khx7wKdcABQk-7">
          <mxGeometry relative="1" as="geometry" />
        </mxCell>
        <mxCell id="cN3Mjci1khx7wKdcABQk-4" value="รับค่า n" style="shape=parallelogram;perimeter=parallelogramPerimeter;whiteSpace=wrap;html=1;fixedSize=1;" vertex="1" parent="1">
          <mxGeometry x="345" y="140" width="150" height="60" as="geometry" />
        </mxCell>
        <mxCell id="cN3Mjci1khx7wKdcABQk-5" value="" style="edgeStyle=orthogonalEdgeStyle;rounded=0;orthogonalLoop=1;jettySize=auto;html=1;" edge="1" parent="1" source="cN3Mjci1khx7wKdcABQk-7" target="cN3Mjci1khx7wKdcABQk-9">
          <mxGeometry relative="1" as="geometry" />
        </mxCell>
        <mxCell id="cN3Mjci1khx7wKdcABQk-6" value="" style="edgeStyle=orthogonalEdgeStyle;rounded=0;orthogonalLoop=1;jettySize=auto;html=1;" edge="1" parent="1" source="cN3Mjci1khx7wKdcABQk-7" target="cN3Mjci1khx7wKdcABQk-21">
          <mxGeometry relative="1" as="geometry" />
        </mxCell>
        <mxCell id="cN3Mjci1khx7wKdcABQk-7" value="n % 2 == 0" style="rhombus;whiteSpace=wrap;html=1;" vertex="1" parent="1">
          <mxGeometry x="310" y="250" width="220" height="80" as="geometry" />
        </mxCell>
        <mxCell id="cN3Mjci1khx7wKdcABQk-8" value="" style="edgeStyle=orthogonalEdgeStyle;rounded=0;orthogonalLoop=1;jettySize=auto;html=1;" edge="1" parent="1" source="cN3Mjci1khx7wKdcABQk-9" target="cN3Mjci1khx7wKdcABQk-12">
          <mxGeometry relative="1" as="geometry" />
        </mxCell>
        <mxCell id="cN3Mjci1khx7wKdcABQk-9" value="" style="ellipse;whiteSpace=wrap;html=1;aspect=fixed;" vertex="1" parent="1">
          <mxGeometry x="590" y="275" width="30" height="30" as="geometry" />
        </mxCell>
        <mxCell id="cN3Mjci1khx7wKdcABQk-10" value="" style="edgeStyle=orthogonalEdgeStyle;rounded=0;orthogonalLoop=1;jettySize=auto;html=1;" edge="1" parent="1" source="cN3Mjci1khx7wKdcABQk-12" target="cN3Mjci1khx7wKdcABQk-14">
          <mxGeometry relative="1" as="geometry" />
        </mxCell>
        <mxCell id="cN3Mjci1khx7wKdcABQk-11" style="edgeStyle=orthogonalEdgeStyle;rounded=0;orthogonalLoop=1;jettySize=auto;html=1;exitX=0;exitY=0.5;exitDx=0;exitDy=0;entryX=1;entryY=0;entryDx=0;entryDy=0;" edge="1" parent="1" source="cN3Mjci1khx7wKdcABQk-12" target="cN3Mjci1khx7wKdcABQk-23">
          <mxGeometry relative="1" as="geometry" />
        </mxCell>
        <mxCell id="cN3Mjci1khx7wKdcABQk-12" value="แสดง Hello World ครบ n รอบ" style="rhombus;whiteSpace=wrap;html=1;" vertex="1" parent="1">
          <mxGeometry x="510" y="360" width="190" height="80" as="geometry" />
        </mxCell>
        <mxCell id="cN3Mjci1khx7wKdcABQk-13" style="edgeStyle=orthogonalEdgeStyle;rounded=0;orthogonalLoop=1;jettySize=auto;html=1;exitX=1;exitY=0.5;exitDx=0;exitDy=0;entryX=1;entryY=0.5;entryDx=0;entryDy=0;" edge="1" parent="1" source="cN3Mjci1khx7wKdcABQk-14" target="cN3Mjci1khx7wKdcABQk-9">
          <mxGeometry relative="1" as="geometry" />
        </mxCell>
        <mxCell id="cN3Mjci1khx7wKdcABQk-14" value="แสดง&amp;nbsp;(รอบที่) Hello World" style="rounded=0;whiteSpace=wrap;html=1;" vertex="1" parent="1">
          <mxGeometry x="505" y="490" width="200" height="60" as="geometry" />
        </mxCell>
        <mxCell id="cN3Mjci1khx7wKdcABQk-15" value="" style="edgeStyle=orthogonalEdgeStyle;rounded=0;orthogonalLoop=1;jettySize=auto;html=1;" edge="1" parent="1" source="cN3Mjci1khx7wKdcABQk-17" target="cN3Mjci1khx7wKdcABQk-19">
          <mxGeometry relative="1" as="geometry" />
        </mxCell>
        <mxCell id="cN3Mjci1khx7wKdcABQk-16" style="edgeStyle=orthogonalEdgeStyle;rounded=0;orthogonalLoop=1;jettySize=auto;html=1;exitX=1;exitY=0.5;exitDx=0;exitDy=0;entryX=0;entryY=0;entryDx=0;entryDy=0;" edge="1" parent="1" source="cN3Mjci1khx7wKdcABQk-17" target="cN3Mjci1khx7wKdcABQk-23">
          <mxGeometry relative="1" as="geometry" />
        </mxCell>
        <mxCell id="cN3Mjci1khx7wKdcABQk-17" value="แสดง Hello World ครบ n รอบ" style="rhombus;whiteSpace=wrap;html=1;" vertex="1" parent="1">
          <mxGeometry x="115" y="360" width="190" height="80" as="geometry" />
        </mxCell>
        <mxCell id="cN3Mjci1khx7wKdcABQk-18" style="edgeStyle=orthogonalEdgeStyle;rounded=0;orthogonalLoop=1;jettySize=auto;html=1;exitX=0;exitY=0.5;exitDx=0;exitDy=0;entryX=0;entryY=0.5;entryDx=0;entryDy=0;" edge="1" parent="1" source="cN3Mjci1khx7wKdcABQk-19" target="cN3Mjci1khx7wKdcABQk-21">
          <mxGeometry relative="1" as="geometry" />
        </mxCell>
        <mxCell id="cN3Mjci1khx7wKdcABQk-19" value="แสดง [รอบที่] Hello World" style="rounded=0;whiteSpace=wrap;html=1;" vertex="1" parent="1">
          <mxGeometry x="110" y="490" width="200" height="60" as="geometry" />
        </mxCell>
        <mxCell id="cN3Mjci1khx7wKdcABQk-20" value="" style="edgeStyle=orthogonalEdgeStyle;rounded=0;orthogonalLoop=1;jettySize=auto;html=1;" edge="1" parent="1" source="cN3Mjci1khx7wKdcABQk-21" target="cN3Mjci1khx7wKdcABQk-17">
          <mxGeometry relative="1" as="geometry" />
        </mxCell>
        <mxCell id="cN3Mjci1khx7wKdcABQk-21" value="" style="ellipse;whiteSpace=wrap;html=1;aspect=fixed;" vertex="1" parent="1">
          <mxGeometry x="195" y="275" width="30" height="30" as="geometry" />
        </mxCell>
        <mxCell id="cN3Mjci1khx7wKdcABQk-22" value="" style="edgeStyle=orthogonalEdgeStyle;rounded=0;orthogonalLoop=1;jettySize=auto;html=1;" edge="1" parent="1" source="cN3Mjci1khx7wKdcABQk-23" target="cN3Mjci1khx7wKdcABQk-24">
          <mxGeometry relative="1" as="geometry" />
        </mxCell>
        <mxCell id="cN3Mjci1khx7wKdcABQk-23" value="" style="ellipse;whiteSpace=wrap;html=1;aspect=fixed;" vertex="1" parent="1">
          <mxGeometry x="384" y="630" width="30" height="30" as="geometry" />
        </mxCell>
        <mxCell id="cN3Mjci1khx7wKdcABQk-24" value="end" style="ellipse;whiteSpace=wrap;html=1;aspect=fixed;" vertex="1" parent="1">
          <mxGeometry x="339" y="710" width="120" height="60" as="geometry" />
        </mxCell>
      </root>
    </mxGraphModel>
  </diagram>
</mxfile>
